<svg xmlns="http://www.w3.org/2000/svg" version="1.1" xmlns:xlink="http://www.w3.org/1999/xlink" viewBox="0 0 200 200"><rect width="200" height="200" fill="url('#gradient')"></rect><defs><linearGradient id="gradient" gradientTransform="rotate(45 0.5 0.5)"><stop offset="0%" stop-color="#d13a80"></stop><stop offset="100%" stop-color="#000000"></stop></linearGradient></defs><g><g fill="#f3e9ed" transform="matrix(2.226355840077304,0,0,2.226355840077304,7.613341849802595,116.47737649875442)" stroke="#d21d81" stroke-width="0.2"><path d="M4.50-14.22L4.50-2.64L10.47-2.64L10.47 0L1.07 0L1.07-14.22L4.50-14.22ZM21.01 0L17.71 0Q17.54-0.32 17.40-0.95L17.40-0.95Q16.49 0.20 14.86 0.20L14.86 0.20Q13.37 0.20 12.32-0.71Q11.28-1.61 11.28-2.98L11.28-2.98Q11.28-4.70 12.55-5.58Q13.82-6.46 16.24-6.46L16.24-6.46L17.26-6.46L17.26-7.01Q17.26-8.47 16.00-8.47L16.00-8.47Q14.82-8.47 14.82-7.31L14.82-7.31L11.53-7.31Q11.53-8.85 12.84-9.80Q14.14-10.76 16.16-10.76Q18.18-10.76 19.36-9.78Q20.53-8.79 20.56-7.07L20.56-7.07L20.56-2.39Q20.58-0.94 21.01-0.17L21.01-0.17L21.01 0ZM15.65-2.15L15.65-2.15Q16.27-2.15 16.67-2.41Q17.08-2.68 17.26-3.01L17.26-3.01L17.26-4.70L16.30-4.70Q14.58-4.70 14.58-3.15L14.58-3.15Q14.58-2.71 14.88-2.43Q15.19-2.15 15.65-2.15ZM27.91-2.97L27.91-2.97Q27.91-3.39 27.47-3.64Q27.03-3.90 25.80-4.17Q24.57-4.44 23.77-4.89Q22.97-5.33 22.55-5.97Q22.13-6.60 22.13-7.42L22.13-7.42Q22.13-8.88 23.33-9.82Q24.53-10.76 26.47-10.76L26.47-10.76Q28.56-10.76 29.83-9.81Q31.10-8.87 31.10-7.32L31.10-7.32L27.80-7.32Q27.80-8.59 26.46-8.59L26.46-8.59Q25.95-8.59 25.60-8.31Q25.24-8.02 25.24-7.59L25.24-7.59Q25.24-7.15 25.67-6.88Q26.10-6.60 27.05-6.43Q27.99-6.25 28.70-6.01L28.70-6.01Q31.08-5.19 31.08-3.07L31.08-3.07Q31.08-1.62 29.80-0.71Q28.52 0.20 26.47 0.20L26.47 0.20Q25.12 0.20 24.05-0.29Q22.99-0.78 22.39-1.62Q21.80-2.46 21.80-3.39L21.80-3.39L24.87-3.39Q24.89-2.66 25.36-2.32Q25.83-1.98 26.56-1.98L26.56-1.98Q27.24-1.98 27.57-2.26Q27.91-2.53 27.91-2.97ZM35.84-15L35.84-9.43Q36.89-10.76 38.54-10.76L38.54-10.76Q40.28-10.76 41.17-9.73Q42.06-8.69 42.08-6.67L42.08-6.67L42.08 0L38.78 0L38.78-6.59Q38.78-7.43 38.44-7.83Q38.10-8.22 37.28-8.22L37.28-8.22Q36.26-8.22 35.84-7.58L35.84-7.58L35.84 0L32.55 0L32.55-15L35.84-15ZM48.38-2.34L48.38-2.34Q49.07-2.34 49.45-2.72Q49.83-3.10 49.82-3.77L49.82-3.77L52.91-3.77Q52.91-2.03 51.67-0.92Q50.42 0.20 48.46 0.20L48.46 0.20Q46.15 0.20 44.82-1.25Q43.50-2.70 43.50-5.25L43.50-5.25L43.50-5.39Q43.50-6.99 44.09-8.22Q44.68-9.44 45.79-10.10Q46.90-10.76 48.43-10.76L48.43-10.76Q50.49-10.76 51.70-9.62Q52.91-8.48 52.91-6.52L52.91-6.52L49.82-6.52Q49.82-7.34 49.42-7.78Q49.02-8.22 48.35-8.22L48.35-8.22Q47.07-8.22 46.86-6.59L46.86-6.59Q46.79-6.07 46.79-5.17L46.79-5.17Q46.79-3.57 47.17-2.96Q47.55-2.34 48.38-2.34ZM57.52-15L57.52-9.43Q58.57-10.76 60.21-10.76L60.21-10.76Q61.96-10.76 62.85-9.73Q63.74-8.69 63.76-6.67L63.76-6.67L63.76 0L60.46 0L60.46-6.59Q60.46-7.43 60.12-7.83Q59.78-8.22 58.96-8.22L58.96-8.22Q57.94-8.22 57.52-7.58L57.52-7.58L57.52 0L54.23 0L54.23-15L57.52-15ZM74.83 0L71.54 0Q71.37-0.32 71.23-0.95L71.23-0.95Q70.32 0.20 68.69 0.20L68.69 0.20Q67.20 0.20 66.15-0.71Q65.11-1.61 65.11-2.98L65.11-2.98Q65.11-4.70 66.38-5.58Q67.65-6.46 70.07-6.46L70.07-6.46L71.08-6.46L71.08-7.01Q71.08-8.47 69.82-8.47L69.82-8.47Q68.65-8.47 68.65-7.31L68.65-7.31L65.36-7.31Q65.36-8.85 66.67-9.80Q67.97-10.76 69.99-10.76Q72.01-10.76 73.18-9.78Q74.36-8.79 74.38-7.07L74.38-7.07L74.38-2.39Q74.40-0.94 74.83-0.17L74.83-0.17L74.83 0ZM69.48-2.15L69.48-2.15Q70.10-2.15 70.50-2.41Q70.91-2.68 71.08-3.01L71.08-3.01L71.08-4.70L70.13-4.70Q68.41-4.70 68.41-3.15L68.41-3.15Q68.41-2.71 68.71-2.43Q69.01-2.15 69.48-2.15ZM76.75-13.19L80.04-13.19L80.04-10.57L81.78-10.57L81.78-8.28L80.04-8.28L80.04-3.45Q80.04-2.85 80.25-2.62Q80.47-2.38 81.10-2.38L81.10-2.38Q81.59-2.38 81.92-2.44L81.92-2.44L81.92-0.09Q81.04 0.20 80.07 0.20L80.07 0.20Q78.37 0.20 77.56-0.61Q76.75-1.41 76.75-3.04L76.75-3.04L76.75-8.28L75.40-8.28L75.40-10.57L76.75-10.57L76.75-13.19Z"></path></g></g></svg>